<mxfile host="app.diagrams.net" modified="2023-12-28T20:06:41.166Z" agent="Mozilla/5.0 (Windows NT 10.0; Win64; x64) AppleWebKit/537.36 (KHTML, like Gecko) Chrome/120.0.0.0 Safari/537.36" version="22.1.15" etag="G122PdTwjxE8i8UGEdl6" type="github">
  <diagram name="Page-1" id="-RUK9_E4jsiuBEZ0q7Ge">
    <mxGraphModel>
      <root>
        <mxCell id="0" />
        <mxCell id="1" parent="0" />
      </root>
    </mxGraphModel>
  </diagram>
</mxfile>
